<svg xmlns="http://www.w3.org/2000/svg" viewBox="0 0 1080 1080"><defs><style>.cls-1{fill:#fff;}.cls-2{fill:#fe1a3d;}.cls-3{fill:none;}</style></defs><g id="Layer_2" data-name="Layer 2"><g id="Layer_1-2" data-name="Layer 1"><path class="cls-1" d="M1009.53,215.61V641.54a32.53,32.53,0,0,1-6.62,19.75,31.69,31.69,0,0,1-9,8.25L778.43,803.27l-160.3,99.51a73.1,73.1,0,0,1-7.24,4,85,85,0,0,1-82.49-4L137.81,660.07,83.22,622.8A28,28,0,0,1,71,599.68V364.31a28,28,0,0,1,42.67-23.84L521.37,593,702.25,705.09l32.59,20.17a24.73,24.73,0,0,0,25.77.1L960.13,604a24.5,24.5,0,0,0,.1-42l-1.42-.81L897.7,523.6,785.16,454.44,668.44,384.27,611.3,350c-22.1-13.14-29.74-39.32-29.74-59l-.3-74.56a52.94,52.94,0,0,1,53-53.06H957.28A52.3,52.3,0,0,1,1009.53,215.61Z"/><rect class="cls-2" x="884.88" y="193.12" width="85.5" height="54.37" rx="13.12"/><rect class="cls-3" width="1080" height="1080"/></g></g></svg>